<svg width="768" height="768" viewBox="0 0 768 768" fill="none" xmlns="http://www.w3.org/2000/svg">
  <rect width="768" height="768" fill="#F2F3F5"/>
  <defs>
    <linearGradient id="shield" x1="211" y1="83" x2="557" y2="430" gradientUnits="userSpaceOnUse">
      <stop stop-color="#1357C5"/>
      <stop offset="1" stop-color="#08C049"/>
    </linearGradient>
  </defs>

  <path d="M212 137C212 107.176 236.176 83 266 83H502C531.824 83 556 107.176 556 137V293C556 380.467 483.749 437.871 384 487C284.251 437.871 212 380.467 212 293V137Z" fill="url(#shield)"/>

  <path d="M248 286L384 160L476 246V220C476 216.686 478.686 214 482 214H500C503.314 214 506 216.686 506 220V274L520 286C523.815 289.27 521.503 295.5 516.5 295.5H493V318C493 343.957 471.957 365 446 365H322C296.043 365 275 343.957 275 318V295.5H251.5C246.497 295.5 244.185 289.27 248 286Z" fill="white"/>

  <rect x="356" y="257" width="24" height="24" rx="4" fill="#0A2C72"/>
  <rect x="388" y="257" width="24" height="24" rx="4" fill="#0A2C72"/>
  <rect x="356" y="289" width="24" height="24" rx="4" fill="#0A2C72"/>
  <rect x="388" y="289" width="24" height="24" rx="4" fill="#0A2C72"/>

  <path d="M384 304C408.301 304 428 323.699 428 348C428 374 384 440 384 440C384 440 340 374 340 348C340 323.699 359.699 304 384 304Z" fill="#0A2C72"/>
  <circle cx="384" cy="347" r="25" fill="#F2F3F5"/>

  <text x="128" y="546" font-family="Outfit, Arial, sans-serif" font-size="104" font-weight="800" fill="#0A2C72">Rent</text>
  <text x="384" y="546" font-family="Outfit, Arial, sans-serif" font-size="104" font-weight="800" fill="#08C049">Spot</text>

  <line x1="172" y1="578" x2="214" y2="578" stroke="#1357C5" stroke-width="4"/>
  <text x="226" y="586" font-family="Outfit, Arial, sans-serif" font-size="40" font-weight="500" fill="#162E66">Find your next home, fast.</text>
  <line x1="570" y1="578" x2="612" y2="578" stroke="#08C049" stroke-width="4"/>

  <g transform="translate(210,620)">
    <path d="M0 26L18 10L36 26" stroke="#1357C5" stroke-width="3" fill="none" stroke-linecap="round"/>
    <rect x="8" y="24" width="20" height="18" rx="2" stroke="#1357C5" stroke-width="3" fill="none"/>
    <path d="M16 42V32H20V42" stroke="#1357C5" stroke-width="3"/>
    <text x="0" y="66" font-family="Outfit, Arial, sans-serif" font-size="30" font-weight="700" fill="#1357C5">RENT</text>
  </g>

  <g transform="translate(352,616)">
    <path d="M0 28L24 8L48 28" stroke="#08C049" stroke-width="3" fill="none" stroke-linecap="round"/>
    <rect x="9" y="26" width="30" height="20" rx="2" stroke="#08C049" stroke-width="3" fill="none"/>
    <rect x="12" y="31" width="24" height="10" rx="2" stroke="#08C049" stroke-width="3" fill="none"/>
    <circle cx="20" cy="36" r="1.5" fill="#08C049"/>
    <circle cx="28" cy="36" r="1.5" fill="#08C049"/>
    <text x="-4" y="70" font-family="Outfit, Arial, sans-serif" font-size="30" font-weight="700" fill="#08C049">ROOMS</text>
  </g>

  <g transform="translate(506,620)">
    <path d="M0 26L18 10L36 26" stroke="#0A2C72" stroke-width="3" fill="none" stroke-linecap="round"/>
    <rect x="8" y="24" width="20" height="18" rx="2" stroke="#0A2C72" stroke-width="3" fill="none"/>
    <path d="M16 36C16 33.791 17.791 32 20 32C22.209 32 24 33.791 24 36C24 40 20 44 20 44C20 44 16 40 16 36Z" fill="#0A2C72"/>
    <circle cx="20" cy="36" r="1.8" fill="#F2F3F5"/>
    <text x="0" y="66" font-family="Outfit, Arial, sans-serif" font-size="30" font-weight="700" fill="#0A2C72">BUY</text>
  </g>

  <line x1="306" y1="628" x2="306" y2="678" stroke="#BFC4CC" stroke-width="3"/>
  <line x1="456" y1="628" x2="456" y2="678" stroke="#BFC4CC" stroke-width="3"/>
</svg>
